<svg xmlns="http://www.w3.org/2000/svg" xmlns:xlink="http://www.w3.org/1999/xlink" width="512" zoomAndPan="magnify" viewBox="0 0 384 383.999986" height="512" preserveAspectRatio="xMidYMid meet" version="1.0"><defs><g/></defs><rect x="-38.4" width="460.8" fill="#ffffff" y="-38.399999" height="460.799983" fill-opacity="1"/><rect x="-38.4" width="460.8" fill="#000000" y="-38.399999" height="460.799983" fill-opacity="1"/><g fill="#ffffff" fill-opacity="1"><g transform="translate(19.680482, 273.928404)"><g><path d="M 54.203125 -178.53125 L 91.015625 -34.640625 L 81.84375 0 L 40.796875 0 L -4.703125 -178.53125 Z M 129.046875 -178.53125 L 166.09375 -34.640625 L 156.6875 0 L 115.640625 0 L 70.5 -178.53125 Z M 203.515625 -178.53125 L 174.0625 -63.734375 L 144.375 -178.53125 Z M 203.515625 -178.53125 "/></g></g></g><g fill="#ff3131" fill-opacity="1"><g transform="translate(218.981247, 273.928404)"><g><path d="M 81.84375 -178.53125 L 138.453125 -178.53125 L 138.453125 -111.0625 Z M 81.84375 0 L 138.453125 -67.484375 L 138.453125 0 Z M 76.40625 0 C 52.90625 -1.851562 35.078125 -10.363281 22.921875 -25.53125 C 10.773438 -40.695312 4.703125 -61.921875 4.703125 -89.203125 C 4.703125 -116.566406 10.773438 -137.789062 22.921875 -152.875 C 35.078125 -167.96875 52.90625 -176.519531 76.40625 -178.53125 Z M 76.40625 0 "/></g></g></g></svg>